<?xml version="1.0" encoding="utf-8" ?><svg xmlns="http://www.w3.org/2000/svg" xmlns:xlink="http://www.w3.org/1999/xlink" width="1654" height="690" viewBox="0 0 1654 690"><path fill="#BE1900" d="M1390.09 56.5191L1458.32 56.3806L1585.11 624.322C1559.77 625.133 1529.05 624.368 1503.4 624.46C1494.79 584.899 1487.21 542.314 1479.4 502.381L1458.15 502.36L1368.88 502.372C1362.72 540.482 1352.59 586.15 1345.03 624.435L1263.29 624.42L1390.09 56.5191ZM1383.49 425.441L1425.04 425.4C1437.69 425.377 1451.53 425.642 1464.08 425.279C1460.06 404.318 1425.36 221.12 1423.36 219.563L1383.49 425.441Z"/><path fill="#BE1900" d="M793.859 51.2637C799.529 51.1275 805.2 51.0415 810.871 51.0056C860.189 50.9879 907.236 80.2827 930.052 123.705C946.606 155.211 943.603 185.676 943.528 219.725L861.526 219.711C861.644 215.038 861.712 210.365 861.73 205.691C861.73 167.738 848.584 131.852 805.126 132.569C757.112 134.136 749.572 172.335 749.805 211.273C750.108 261.965 763.088 268.29 807.775 286.108C863.662 308.971 927.68 323.38 938.339 394.179C951.735 483.155 947.879 607.368 835.458 626.122C829.649 627.091 824.253 628.674 818.318 628.698L802.657 628.864C767.211 629.066 729.491 614.604 704.26 589.525C681.954 567.698 667.994 538.744 664.807 507.692C663.6 494.968 664.057 476.394 663.991 463.07L746.063 463.049C744.958 487.518 744.051 517.353 764.738 534.875C785.516 552.474 830.251 551.566 848.513 530.127C852.775 525.047 855.912 519.121 857.717 512.74C863.864 491.394 862.565 454.192 860.751 431.874C859.828 420.526 858.104 408.018 850.831 398.803C836.149 380.2 768.63 358.834 743.816 346.882C731.753 341.071 720.156 334.074 709.961 325.355C681.677 301.17 671.689 264.528 668.892 228.71C665.271 182.34 673.179 131.375 704.366 95.0761C727.245 68.4468 759.081 53.873 793.859 51.2637Z"/><path fill="#BE1900" d="M1105.64 51.2551C1120.29 50.8822 1129.85 50.4848 1144.44 53.8854C1175.13 61.0398 1201.29 82.2979 1217.68 108.856C1223.28 117.876 1227.33 127.767 1229.67 138.121C1237.54 172.057 1237.66 243.489 1231.67 278.873C1227.38 304.283 1206.04 317.587 1185.51 330.265C1238.68 362.314 1235.83 393.067 1235.68 450.165C1235.54 504.191 1239.86 553.043 1199.04 594.912C1152.69 642.462 1073.07 638.591 1026.15 594.507C987.755 558.342 992.963 509.406 993.026 460.551C1009.35 460.892 1026.64 460.622 1043.04 460.634L1074.88 460.519C1074.63 491.85 1066.47 547.408 1114.93 546.797C1158.42 546.248 1154.11 500.474 1154.01 469.265L1154.05 423.464C1153.63 371.667 1137.77 365.909 1089.29 367.208C1089.42 343.156 1089.41 319.104 1089.25 295.052C1133.89 294.33 1153.7 292.354 1154.05 242.405L1154.11 197.548C1154.09 171.238 1156.98 139.681 1122.99 133.573C1111.02 131.421 1095.99 132.924 1087.19 142.118C1069.89 160.179 1074.71 195.084 1074.83 218.989C1047.71 218.683 1020.28 218.899 993.139 218.963C991.841 173.336 989.226 131.358 1020.85 94.5578C1041.75 70.2388 1073.7 53.788 1105.64 51.2551Z"/><path fill="#BE1900" d="M520.11 56.388L602.045 56.4013L601.989 285.555L602.097 624.339C577.444 625.45 545.775 624.199 520.124 624.53L520.11 56.388Z"/><path d="M74.2798 49.5346L187.736 49.5338C188.392 60.3309 187.328 81.1969 187.517 93.3886C172.406 93.9305 155.088 93.6078 139.821 93.6391C138.802 148.475 139.784 206.628 139.782 261.684L139.806 597.075L184.339 597.118L187.133 597.47C188.069 600.047 187.845 635.915 187.611 640.792L74.2449 640.818L74.2798 49.5346Z"/><path d="M390.025 251.153C394.161 251.267 397.638 253.166 400.085 256.515C405.398 263.789 422.051 275.711 425.312 283.3C424.985 296.211 376.005 329.044 378.656 339.321C381.609 350.768 424.131 379.942 425.041 392.747C423.874 398.53 402.696 417.858 397.117 422.667C395.294 424.238 393.38 425.045 390.951 424.384C378.275 420.933 350.365 378.952 338.915 378.32C336.853 378.206 335.3 379.235 333.716 380.416C328.469 384.331 323.808 389.776 319.184 394.432C309.111 404.573 299.231 415.042 288.708 424.709C287.336 424.812 285.948 424.776 284.621 424.381C280.648 423.198 255.931 398.081 253.546 393.652C248.58 384.43 295.555 351.554 298.559 341.036C299.287 338.485 298.691 335.963 297.404 333.701C290.058 320.783 261.282 302.154 254.364 289.265C253.321 287.321 252.774 284.74 253.505 282.599C254.511 279.654 280.226 253.822 282.798 252.726C293.622 248.116 325.267 294.44 337.998 298.847C340.644 298.693 343.44 297.119 345.347 295.372C360.712 281.292 374.837 265.41 390.025 251.153Z"/><path d="M390.584 51.5449C396.898 52.1083 401.799 58.5192 405.772 63.0575C409.99 67.8755 423.725 78.4713 425.374 84.1129C424.576 94.259 389.371 122.102 381.811 131.733C380.097 133.917 377.638 136.835 378.62 139.687C383.169 152.895 424.152 180.983 425.039 192.911C423.953 198.846 402.95 218.065 397.378 222.927C395.566 224.508 393.848 225.551 391.36 224.948C379.322 222.031 349.905 179.496 339.226 178.88C336.992 178.752 335.438 179.657 333.677 180.97C328.398 184.906 323.785 190.252 319.13 194.928C308.924 205.179 298.929 215.795 288.276 225.576C287.933 225.552 287.589 225.528 287.247 225.486C285.287 225.243 283.752 224.687 282.15 223.53C277.975 220.516 257.989 200.54 254.888 196.315C253.604 194.565 252.73 193.216 253.253 191.009C256.106 178.967 297.488 150.536 298.723 140.383C299.061 137.605 297.976 135.048 296.483 132.765C293.852 128.744 289.758 125.367 286.313 122.047C276.722 112.806 263.316 101.977 255.366 91.6102C253.812 89.5852 252.578 87.0446 253.046 84.4253C253.827 80.0585 277.324 57.3105 282 54.1233C293.719 46.1354 324.639 96.5037 338.066 98.8666C346.544 100.359 380.389 58.8565 390.584 51.5449Z"/><path d="M390.088 450.67C393.107 450.77 395.128 451.383 397.451 453.323C401.634 456.815 424.957 480.006 425.153 483.736C425.593 492.111 389.131 521.88 382.064 530.325C380.273 532.465 378.296 535.273 378.717 538.224C380.597 551.405 423.852 578.141 425.049 591.637C424.117 597.06 402.127 617.352 396.559 622.891L387.771 622.916C376.663 611.579 353.06 586.398 340.429 577.845C335.087 574.228 297.972 616.176 290.334 622.635L289.869 623.025C288.068 623.076 286.184 623.175 284.395 622.94C280.218 622.391 258.461 600.072 255.11 595.646C253.77 593.878 252.743 592.436 253.242 590.162C255.758 578.698 298.043 548.218 299.016 539.376C300.132 529.233 264.236 501.386 256.435 491.539C254.219 488.74 252.956 486.258 253.336 482.649C255.311 478.208 278.848 454.997 283.14 452.032C294.968 449.407 325.252 493.405 337.981 498.384C345.864 497.966 380.637 459.11 390.088 450.67Z"/></svg>